<?xml version="1.0" encoding="UTF-8"?>
<svg width="100pt" height="100pt" version="1.1" viewBox="0 0 100 100" xmlns="http://www.w3.org/2000/svg">
 <path d="m50 10.527c-19.074 0-34.969 13.59-38.652 31.578h-6.0859c-2.6289 0-5.2617 2.6328-5.2617 5.2617v5.2656c0 2.6289 2.6328 5.2617 5.2617 5.2617h6.0859c3.6797 17.988 19.578 31.578 38.652 31.578s34.973-13.594 38.652-31.578h6.0859c2.6328 0 5.2656-2.6328 5.2656-5.2617v-5.2656c0-2.6328-2.6328-5.2617-5.2656-5.2617h-6.0859c-3.6836-17.988-19.578-31.578-38.652-31.578zm0 13.156c10.824 0 20.359 8.7266 23.684 18.422h-47.367c3.3242-9.6953 12.859-18.422 23.684-18.422zm-23.684 34.211h47.367c-3.3242 9.6953-12.859 18.422-23.684 18.422s-20.359-8.7266-23.684-18.422z"/>
</svg>
